<svg xmlns="http://www.w3.org/2000/svg" viewBox="0 0 318.2 500"><g id="ELEMENTS"><polygon points="22.73 104.98 22.73 262.44 0 275.57 0 91.85 22.73 104.98" style="fill:#8ccae3"/><polygon points="68.18 131.22 68.18 236.2 45.45 249.32 45.45 118.1 68.18 131.22" style="fill:#8ccae3"/><polygon points="113.64 157.47 113.64 209.95 90.91 223.08 90.91 144.34 113.64 157.47" style="fill:#8ccae3"/><polygon points="159.09 183.71 136.36 196.83 136.36 170.59 159.09 183.71" style="fill:#8ccae3"/><polygon points="318.2 91.85 318.2 275.57 295.47 262.44 295.47 104.98 318.2 91.85" style="fill:#4377a7"/><polygon points="272.75 118.1 272.75 249.32 250.02 236.2 250.02 131.22 272.75 118.1" style="fill:#4377a7"/><polygon points="227.28 144.34 227.28 223.08 204.56 209.95 204.56 157.47 227.28 144.34" style="fill:#4377a7"/><polygon points="181.83 170.59 181.83 196.83 159.1 183.71 181.83 170.59" style="fill:#4377a7"/><polygon points="181.83 13.12 22.73 104.98 0 91.85 159.1 0 181.83 13.12" style="fill:#67b6dd"/><polygon points="227.28 39.37 68.19 131.22 45.46 118.09 204.56 26.24 227.28 39.37" style="fill:#67b6dd"/><polygon points="272.74 65.61 113.64 157.47 90.91 144.34 250.01 52.49 272.74 65.61" style="fill:#67b6dd"/><polygon points="159.1 157.47 181.83 170.58 159.1 183.71 136.37 170.59 159.1 157.47" style="fill:#67b6dd"/><polygon points="204.55 131.22 227.28 144.35 204.55 157.47 181.82 144.35 204.55 131.22" style="fill:#67b6dd"/><polygon points="250.01 104.98 272.74 118.09 250.01 131.22 227.28 118.1 250.01 104.98" style="fill:#67b6dd"/><polygon points="318.2 91.85 318.19 91.85 295.46 104.98 272.73 91.85 295.46 78.73 295.47 78.72 318.2 91.85" style="fill:#67b6dd"/><polygon points="159.09 341.17 136.36 354.3 113.64 341.19 159.1 314.94 159.09 341.17" style="fill:#8ccae3"/><polygon points="159.1 288.69 90.91 328.06 68.19 314.93 159.1 262.44 159.1 288.69" style="fill:#8ccae3"/><polygon points="159.09 236.19 45.45 301.81 22.73 288.69 159.1 209.96 159.09 236.19" style="fill:#8ccae3"/><polygon points="204.56 341.18 181.83 354.3 159.1 341.17 159.1 314.94 204.56 341.18" style="fill:#4377a7"/><polygon points="250.01 314.93 227.28 328.06 159.1 288.69 159.1 262.44 250.01 314.93" style="fill:#4377a7"/><polygon points="295.47 288.69 272.75 301.81 159.1 236.19 159.1 209.96 295.47 288.69" style="fill:#4377a7"/><path d="M45.61,394.77H28V500H17.8V394.77H0v-9H45.61Z" style="fill:#4377a7"/><path d="M94.1,500H57V385.79H94.1v9H67.17v42.61H91.68v9.15H67.17v44.52H94.1Z" style="fill:#4377a7"/><path d="M151.26,491.9a7.78,7.78,0,0,1-2.33,5.83A8.11,8.11,0,0,1,143,500H113.61a7.76,7.76,0,0,1-8.09-7.44c0-.22,0-.44,0-.65v-98a7.78,7.78,0,0,1,7.44-8.1c.22,0,.43,0,.65,0H143a8.12,8.12,0,0,1,5.91,2.27,7.75,7.75,0,0,1,2.33,5.83v26.57H141.05V394.77H115.66V491h25.39v-28.1h10.21Z" style="fill:#4377a7"/><path d="M199.17,500h-36.5V385.79h10.14V491h26.35Z" style="fill:#4377a7"/><path d="M261,500H251l-4-25.33H224.35l-4,25.33h-9.76v-.31l20.3-113.91h10Zm-15.36-34.28L235.7,404l-10,61.72Z" style="fill:#4377a7"/><path d="M318.21,491.9a7.77,7.77,0,0,1-7.44,8.09H272.45V385.79h37.34a7.78,7.78,0,0,1,8.1,7.44q0,.33,0,.66v33.93a9.14,9.14,0,0,1-4.09,7.59l-8,4.82,8.62,5.54a8,8,0,0,1,3.79,7.3Zm-10.5-62.76V394.8H282.57V436h14.95ZM308,491V451.54l-10.29-6.72H282.57V491Z" style="fill:#4377a7"/></g></svg>