<svg xmlns="http://www.w3.org/2000/svg" viewBox="0 0 388.74 500"><g id="ELEMENTS"><path d="M194.37,500h0a17.38,17.38,0,0,1-12.74-5.55C174.21,486.47,0,297.76,0,194.37,0,87.19,87.19,0,194.37,0S388.74,87.19,388.74,194.37c0,103.39-174.22,292.1-181.64,300.08A17.38,17.38,0,0,1,194.37,500Zm0-465.23c-88,0-159.6,71.59-159.6,159.6,0,68.62,105.46,201.46,159.6,262.37C248.5,395.83,354,263,354,194.37,354,106.36,282.37,34.77,194.37,34.77Z" style="fill:#0078ab"/><path d="M194.37,273.38a87.51,87.51,0,1,1,87.51-87.5A87.6,87.6,0,0,1,194.37,273.38Zm0-140.24a52.74,52.74,0,1,0,52.74,52.74A52.79,52.79,0,0,0,194.37,133.14Z" style="fill:#0078ab"/></g></svg>