<svg xmlns="http://www.w3.org/2000/svg" xmlns:xlink="http://www.w3.org/1999/xlink" viewBox="0 0 500 500"><defs><linearGradient id="linear-gradient" x1="153.32" y1="-100.65" x2="606.78" y2="333.38" gradientUnits="userSpaceOnUse"><stop offset="0" stop-color="#fbe18a"/><stop offset="0.21" stop-color="#fcbb45"/><stop offset="0.38" stop-color="#f75274"/><stop offset="0.52" stop-color="#d53692"/><stop offset="0.74" stop-color="#8f39ce"/><stop offset="1" stop-color="#5b4fe9"/></linearGradient><linearGradient id="linear-gradient-2" x1="25.37" y1="33.03" x2="478.82" y2="467.06" xlink:href="#linear-gradient"/><linearGradient id="linear-gradient-3" x1="24.39" y1="34.05" x2="477.84" y2="468.08" xlink:href="#linear-gradient"/></defs><g id="ELEMENTS"><path d="M382.37,89.28a29.31,29.31,0,1,0,29.31,29.31A29.31,29.31,0,0,0,382.37,89.28Z" style="fill:url(#linear-gradient)"/><path d="M252.05,126.87A123.13,123.13,0,1,0,375.19,250,123.27,123.27,0,0,0,252.05,126.87Zm0,202A78.88,78.88,0,1,1,330.92,250,79,79,0,0,1,252.05,328.88Z" style="fill:url(#linear-gradient-2)"/><path d="M349.8,500H150.18C67.37,500,0,432.63,0,349.82V150.18C0,67.37,67.37,0,150.18,0H349.8C432.62,0,500,67.37,500,150.18V349.82C500,432.63,432.62,500,349.8,500ZM150.18,47A103.26,103.26,0,0,0,47,150.18V349.82A103.26,103.26,0,0,0,150.18,453H349.8A103.27,103.27,0,0,0,453,349.82V150.18A103.27,103.27,0,0,0,349.8,47Z" style="fill:url(#linear-gradient-3)"/></g></svg>