<svg xmlns="http://www.w3.org/2000/svg" viewBox="0 0 496.84 500"><g id="ELEMENTS"><path d="M490.16,191.68C463,78.77,365.63,1.64,248.34,0a295.28,295.28,0,0,0-47.45,4.92C36.15,37.87-48.64,220,30.89,366.53c3,4,3,7.48,2.45,11.93C21.77,416.56,11,455.36,1.09,493.9c-1.87,6.77-1.87,6.77,4.38,4.9,40.21-11,80.06-21,120.09-31.08a11.73,11.73,0,0,1,8.94.23c51.43,26.41,105.89,33.66,163,23.15C433.47,464.72,522.6,326.1,490.16,191.68Zm-207,259.7c-11.87,2.11-23.14,3-28.52,2.35-43.88,0-79.13-9.59-112-28.52-4.56-3-8.18-4-12.68-1.87-22.38,5.38-44.3,11.21-66.32,16.83-4.79,1.4-5.26.69-4.15-4,5.84-20.57,11.56-41.61,17.93-62.65,1.46-5.6,1.11-10-2.57-15-44.94-72.7-43.18-163.15,7.31-231C134.5,58,206.56,28.76,292.05,47c84.33,18,138.15,72.47,157.32,156.39,27.46,115-50.2,228.84-166.14,248Z" style="fill:#65ae2f;fill-rule:evenodd"/><path d="M313.27,366.53c-8.71.71-17.48-.93-25.95-3.73-56.46-16.37-99.52-51.43-134.11-98.65C140.35,247.08,128.07,228,124.45,206c-5.25-26,2.69-48.62,22.62-66.38,6.14-6.08,25.24-8.89,32.84-4.92a21,21,0,0,1,5.37,6.55c7.19,17.53,14.68,34.14,21.75,50.73A12.26,12.26,0,0,1,206,202.43c-3.68,7.48-9.47,14-15,20.35-5,4.2-5,8.87-1.47,14,20.34,33.43,47.81,58.2,84.8,72.46,5.2,2.11,9.17,1.4,12.39-2.8,6.48-7.72,12.8-15.67,18.53-23.38,3.68-4.91,8.65-5.6,13.79-3.28,12.38,5.61,24.07,11,36.11,16.6,2.87,1.4,5.26,2.58,8.07,4,12.26,6.08,12.26,6.77,11,19.87-1.92,26.18-21.62,39-44.53,45.59A43,43,0,0,1,313.27,366.53Z" style="fill:#65ae2f;fill-rule:evenodd"/></g></svg>