<svg xmlns="http://www.w3.org/2000/svg" viewBox="0 0 499.98 500"><g id="ELEMENTS"><path d="M487.13,368.78,425,306.63a44,44,0,0,0-62.16,0l-28.25,28.25a33.34,33.34,0,0,1-47.09,0L165,212.32a33.29,33.29,0,0,1,0-47.09L193.26,137a43.93,43.93,0,0,0,0-62.18L131.11,12.86a44,44,0,0,0-62.11,0L46.35,35.26c-61.8,61.8-61.8,162.35,0,224.14l194,194.14a158.4,158.4,0,0,0,224.14,0l22.61-22.6A44,44,0,0,0,487.13,368.78Zm-82.88-41.44,62.16,62.16a14.67,14.67,0,0,1,0,20.72l-10.36,10.36L373.17,337.7l10.36-10.36A14.67,14.67,0,0,1,404.25,327.34ZM110.4,33.59l62.14,62a14.64,14.64,0,0,1,0,20.72l-10.35,10.36L79.36,43.79,89.67,33.58A14.66,14.66,0,0,1,110.4,33.59ZM261.1,432.82l-194-194.13A128.82,128.82,0,0,1,59,64.85l82.59,82.59A62.52,62.52,0,0,0,144.29,233L266.75,355.59h0a62.53,62.53,0,0,0,85.6,2.72l82.59,82.59A128.56,128.56,0,0,1,261.1,432.82Z" style="fill:#0078ab"/></g></svg>