<svg xmlns="http://www.w3.org/2000/svg" viewBox="0 0 499.99 500"><g id="ELEMENTS"><path d="M250,0C112.15,0,0,112.15,0,250S112.15,500,250,500,500,387.85,500,250,387.84,0,250,0ZM464.74,232.75H370.69c-2.34-78-20.46-144.09-48.28-185.69C400.53,75,457.89,146.86,464.74,232.75ZM250,465.49c-39,0-82.26-80.57-86.16-198.24H336.16C332.26,384.92,289,465.49,250,465.49ZM163.83,232.75C167.73,115.08,211,34.51,250,34.51s82.27,80.57,86.17,198.24ZM177.58,47.06c-27.82,41.6-45.94,107.7-48.28,185.69h-94C42.1,146.86,99.46,75,177.58,47.06ZM35.26,267.25h94c2.34,78,20.46,144.09,48.28,185.69C99.46,425,42.1,353.14,35.26,267.25ZM322.41,452.94c27.82-41.6,45.94-107.71,48.28-185.69h94.05C457.89,353.14,400.53,425,322.41,452.94Z" style="fill:#0078ab"/></g></svg>