<svg xmlns="http://www.w3.org/2000/svg" viewBox="0 0 403.24 500"><g id="ELEMENTS"><path d="M273.55,246.06a133.53,133.53,0,0,0,61.7-112.43C335.25,60,275.3,0,201.62,0S68,60,68,133.63a133.53,133.53,0,0,0,61.7,112.43C53.94,275.09,0,348.53,0,434.36A65.71,65.71,0,0,0,65.63,500h272a65.71,65.71,0,0,0,65.63-65.64C403.24,348.53,349.3,275.09,273.55,246.06Zm-171-112.43a99.12,99.12,0,1,1,99.12,99.11A99.23,99.23,0,0,1,102.5,133.63ZM337.61,465.49h-272a31.16,31.16,0,0,1-31.12-31.13c0-92.14,75-167.11,167.11-167.11s167.12,75,167.12,167.11A31.17,31.17,0,0,1,337.61,465.49Z" style="fill:#0078ab"/></g></svg>