<svg xmlns="http://www.w3.org/2000/svg" viewBox="0 0 349.89 500"><g id="ELEMENTS"><path d="M275.88,0H74A74.09,74.09,0,0,0,0,74V426a74.09,74.09,0,0,0,74,74H275.88a74.09,74.09,0,0,0,74-74V74A74.09,74.09,0,0,0,275.88,0ZM74,34.15H275.88A39.9,39.9,0,0,1,315.74,74V356H34.15V74A39.9,39.9,0,0,1,74,34.15Zm201.87,431.7H74A39.9,39.9,0,0,1,34.15,426V390.15H315.74V426A39.9,39.9,0,0,1,275.88,465.85Z" style="fill:#0078ab"/><path d="M170.28,83.28a13.66,13.66,0,1,0-13.66-13.66A13.66,13.66,0,0,0,170.28,83.28Z" style="fill:#0078ab"/><path d="M170.28,411.39a13.66,13.66,0,1,0,13.66,13.66A13.67,13.67,0,0,0,170.28,411.39Z" style="fill:#0078ab"/></g></svg>