<svg id="Layer_1" data-name="Layer 1" xmlns="http://www.w3.org/2000/svg" xmlns:xlink="http://www.w3.org/1999/xlink" viewBox="0 0 500.86 500"><defs><radialGradient id="radial-gradient" cx="137.93" cy="-203.32" r="1356.81" gradientUnits="userSpaceOnUse"><stop offset="0.1" stop-color="#f6ba4e"/><stop offset="0.34" stop-color="#eb4838"/><stop offset="0.66" stop-color="#c11a6e"/></radialGradient></defs><path d="M434.62,0H66.47C22.65,0,0,23.09,0,66.9V434.4C0,476.69,23.31,500,64.3,500H434.62c42.73,0,66.24-23.31,66.24-66.25V65.6C500.86,23.09,477.35,0,434.62,0ZM394,56.54c49.64,0,49.64,0,49.64,49.63,0,48.55,0,48.55-48.77,48.55-49.19,0-49.19,0-49.19-49.2C345.72,56.54,345.72,56.54,394,56.54ZM250.76,153c52.22,0,97.1,44.88,96.24,96.89-.42,53.52-44.88,97.76-98,96.68-52.66-1.08-97.12-45.53-95.81-97.76C154.51,196.37,198.53,153,250.76,153ZM443.68,413.25c-.42,23.31-6.48,30-29.77,30H86.76c-22.88,0-29.35-6.68-29.35-30,0-60.21.22-121.49-.86-182.35,0-17.05,4.75-21.15,20.7-20.5,22.87,1.73,23.32.86,20.73,23.09-8.86,77.26,44.66,152.35,120.83,167.24,78.56,15.11,157.11-32.15,178.68-107.25C404,270,405.91,244.93,401,221.62c-1.72-8.84.42-10.36,8.2-10.36,34.52-2.59,34.52-3.23,34.52,32.37Z" style="fill-rule:evenodd;fill:url(#radial-gradient)"/></svg>