<svg id="LOGO" xmlns="http://www.w3.org/2000/svg" viewBox="0 0 490.98 771.48"><polygon points="35.07 161.98 35.07 404.95 0 425.2 0 141.73 35.07 161.98" style="fill:#69cce6"/><polygon points="105.2 202.48 105.2 364.46 70.13 384.7 70.13 182.23 105.2 202.48" style="fill:#69cce6"/><polygon points="175.35 242.97 175.35 323.96 140.28 344.21 140.28 222.72 175.35 242.97" style="fill:#69cce6"/><polygon points="245.48 283.47 210.41 303.71 210.41 263.22 245.48 283.47" style="fill:#69cce6"/><polygon points="490.98 141.73 490.98 425.2 455.91 404.95 455.91 161.98 490.98 141.73" style="fill:#0078ab"/><polygon points="420.85 182.23 420.85 384.7 385.78 364.46 385.78 202.48 420.85 182.23" style="fill:#0078ab"/><polygon points="350.7 222.72 350.7 344.21 315.63 323.96 315.63 242.97 350.7 222.72" style="fill:#0078ab"/><polygon points="280.57 263.22 280.57 303.71 245.5 283.47 280.57 263.22" style="fill:#0078ab"/><polygon points="280.56 20.25 35.07 161.99 0 141.73 245.49 0 280.56 20.25" style="fill:#00b8e0"/><polygon points="350.7 60.74 105.21 202.47 70.14 182.22 315.63 40.49 350.7 60.74" style="fill:#00b8e0"/><polygon points="420.84 101.24 175.35 242.97 140.28 222.72 385.77 80.99 420.84 101.24" style="fill:#00b8e0"/><polygon points="245.49 242.97 280.56 263.21 245.49 283.47 210.42 263.22 245.49 242.97" style="fill:#00b8e0"/><polygon points="315.62 202.48 350.69 222.73 315.62 242.98 280.55 222.73 315.62 202.48" style="fill:#00b8e0"/><polygon points="385.77 161.98 420.84 182.22 385.77 202.48 350.7 182.23 385.77 161.98" style="fill:#00b8e0"/><polygon points="490.98 141.72 490.96 141.73 455.89 161.98 420.82 141.73 455.89 121.48 455.91 121.47 490.98 141.72" style="fill:#00b8e0"/><polygon points="245.48 526.43 210.41 546.68 175.35 526.45 245.49 485.95 245.48 526.43" style="fill:#69cce6"/><polygon points="245.49 445.45 140.28 506.19 105.21 485.94 245.49 404.95 245.49 445.45" style="fill:#69cce6"/><polygon points="245.48 364.45 70.13 465.69 35.07 445.45 245.49 323.97 245.48 364.45" style="fill:#69cce6"/><polygon points="315.63 526.44 280.57 546.68 245.5 526.43 245.49 485.95 315.63 526.44" style="fill:#0078ab"/><polygon points="385.77 485.94 350.7 506.19 245.49 445.45 245.5 404.95 385.77 485.94" style="fill:#0078ab"/><polygon points="455.91 445.45 420.85 465.69 245.5 364.45 245.49 323.97 455.91 445.45" style="fill:#0078ab"/><path d="M70.37,609.13H43.12V771.48H27.47V609.13H0V595.28H70.37Z" style="fill:#0078ab"/><path d="M145.19,771.48H88V595.28h57.2v13.85H103.64v65.75h37.83V689H103.64v68.69h41.55Z" style="fill:#0078ab"/><path d="M233.4,759a12,12,0,0,1-3.6,9,12.55,12.55,0,0,1-9.12,3.49H175.3A12,12,0,0,1,162.81,759V607.77a12,12,0,0,1,12.49-12.49h45.38a12.55,12.55,0,0,1,9.12,3.49,12,12,0,0,1,3.6,9v41H217.64V609.13H178.46V757.64h39.18V714.29H233.4Z" style="fill:#0078ab"/><path d="M307.32,771.48H251V595.28h15.65V757.64h40.65Z" style="fill:#0078ab"/><path d="M402.77,771.48h-15.5l-6.18-39.08H346.17L340,771.48H324.94V771l31.33-175.75h15.39Zm-23.7-52.89-15.39-95.24-15.49,95.24Z" style="fill:#0078ab"/><path d="M491,759a12,12,0,0,1-12.5,12.49H420.39V595.28H478a12,12,0,0,1,12.5,12.49v52.36q0,7-6.3,11.71l-12.39,7.43,13.29,8.56q5.85,3.6,5.85,11.26Zm-16.21-96.83v-53H436v63.61h23.08Zm.45,95.48V696.72l-15.88-10.36H436v71.28Z" style="fill:#0078ab"/></svg>