<svg id="Layer_1" data-name="Layer 1" xmlns="http://www.w3.org/2000/svg" viewBox="0 0 496.94 500"><path d="M490.26,191.72C463.08,78.79,365.7,1.64,248.39,0a295.21,295.21,0,0,0-47.46,4.92C36.16,37.88-48.65,220,30.9,366.6c3,4,3,7.48,2.45,11.93C21.78,416.64,11,455.45,1.09,494c-1.87,6.77-1.87,6.77,4.38,4.9,40.22-11,80.08-21,120.12-31.09a11.75,11.75,0,0,1,8.94.23c51.44,26.42,105.91,33.67,163,23.16C433.56,464.81,522.7,326.16,490.26,191.72Zm-207,259.75c-11.87,2.11-23.15,3-28.53,2.35-43.89,0-79.14-9.59-112-28.53-4.56-3-8.18-4-12.68-1.87-22.39,5.38-44.31,11.22-66.34,16.84-4.79,1.4-5.26.69-4.15-4,5.84-20.58,11.57-41.62,17.94-62.67,1.46-5.6,1.11-10-2.57-15-44.95-72.71-43.19-163.18,7.31-231C134.53,58,206.6,28.77,292.11,47c84.35,18,138.18,72.48,157.35,156.42C476.93,318.44,399.25,432.31,283.29,451.47Z" style="fill:#11b113;fill-rule:evenodd"/><path d="M313.33,366.6c-8.71.71-17.48-.93-25.95-3.73-56.47-16.37-99.54-51.44-134.14-98.67C140.38,247.13,128.1,228,124.48,206c-5.26-25.95,2.69-48.63,22.62-66.39,6.14-6.08,25.25-8.89,32.85-4.92a20.88,20.88,0,0,1,5.37,6.55c7.19,17.53,14.68,34.14,21.75,50.74A12.25,12.25,0,0,1,206,202.47c-3.68,7.48-9.47,14-15,20.35-5,4.2-5,8.88-1.47,14,20.34,33.43,47.82,58.21,84.82,72.47,5.2,2.11,9.17,1.4,12.39-2.8,6.48-7.72,12.8-15.67,18.53-23.38,3.68-4.91,8.65-5.61,13.79-3.28,12.39,5.61,24.08,11,36.12,16.6,2.87,1.4,5.26,2.58,8.07,4,12.27,6.08,12.27,6.77,11,19.87-1.93,26.19-21.63,39.05-44.54,45.6A42.81,42.81,0,0,1,313.33,366.6Z" style="fill:#11b113;fill-rule:evenodd"/></svg>