<svg id="ICONES_AZUL_3" data-name="ICONES AZUL 3" xmlns="http://www.w3.org/2000/svg" viewBox="0 0 512 512"><defs><style>.cls-1{fill:#8dcbe4;}</style></defs><path class="cls-1" d="M391.55,91.42a30,30,0,1,0,30,30A30,30,0,0,0,391.55,91.42Z"/><path class="cls-1" d="M258.1,129.91A126.09,126.09,0,1,0,384.19,256,126.23,126.23,0,0,0,258.1,129.91Zm0,206.86A80.77,80.77,0,1,1,338.87,256,80.86,80.86,0,0,1,258.1,336.77Z"/><path class="cls-1" d="M358.2,512H153.79C69,512,0,443,0,358.21V153.79C0,69,69,0,153.79,0H358.2C443,0,512,69,512,153.79V358.21C512,443,443,512,358.2,512ZM153.79,48.17A105.74,105.74,0,0,0,48.17,153.79V358.21A105.73,105.73,0,0,0,153.79,463.83H358.2A105.73,105.73,0,0,0,463.83,358.21V153.79A105.74,105.74,0,0,0,358.2,48.17Z"/></svg>