<svg id="ICONES_AZUL_3" data-name="ICONES AZUL 3" xmlns="http://www.w3.org/2000/svg" viewBox="0 0 443.41 512"><defs><style>.cls-1{fill:#8dcbe4;}</style></defs><polygon class="cls-1" points="31.68 146.29 31.68 365.72 0 384 0 128 31.68 146.29"/><polygon class="cls-1" points="95.01 182.86 95.01 329.14 63.34 347.43 63.34 164.57 95.01 182.86"/><polygon class="cls-1" points="158.36 219.43 158.36 292.57 126.69 310.86 126.69 201.14 158.36 219.43"/><polygon class="cls-1" points="221.7 256 190.02 274.29 190.02 237.72 221.7 256"/><polygon class="cls-1" points="443.41 128 443.41 384 411.74 365.72 411.74 146.29 443.41 128"/><polygon class="cls-1" points="380.08 164.57 380.08 347.43 348.4 329.14 348.4 182.86 380.08 164.57"/><polygon class="cls-1" points="316.73 201.14 316.73 310.86 285.05 292.57 285.05 219.43 316.73 201.14"/><polygon class="cls-1" points="253.39 237.72 253.39 274.29 221.71 256 253.39 237.72"/><polygon class="cls-1" points="253.38 18.29 31.68 146.29 0 128 221.71 0 253.38 18.29"/><polygon class="cls-1" points="316.72 54.85 95.02 182.85 63.34 164.57 285.05 36.56 316.72 54.85"/><polygon class="cls-1" points="380.07 91.43 158.36 219.43 126.69 201.14 348.39 73.14 380.07 91.43"/><polygon class="cls-1" points="221.71 219.43 253.38 237.71 221.7 256 190.03 237.72 221.71 219.43"/><polygon class="cls-1" points="285.05 182.86 316.72 201.15 285.04 219.44 253.37 201.15 285.05 182.86"/><polygon class="cls-1" points="348.39 146.28 380.06 164.57 348.39 182.86 316.72 164.57 348.39 146.28"/><polygon class="cls-1" points="443.41 127.99 443.39 128 411.72 146.29 380.05 128 411.72 109.71 411.74 109.7 443.41 127.99"/><polygon class="cls-1" points="221.7 475.43 190.03 493.71 158.36 475.44 221.71 438.87 221.7 475.43"/><polygon class="cls-1" points="221.7 402.29 126.69 457.15 95.01 438.86 221.7 365.72 221.7 402.29"/><polygon class="cls-1" points="221.7 329.14 63.34 420.57 31.67 402.3 221.71 292.58 221.7 329.14"/><polygon class="cls-1" points="285.05 475.44 253.38 493.71 221.71 475.43 221.71 438.87 285.05 475.44"/><polygon class="cls-1" points="348.4 438.86 316.73 457.15 221.71 402.29 221.71 365.71 348.4 438.86"/><polygon class="cls-1" points="411.74 402.29 380.07 420.57 221.71 329.14 221.71 292.58 411.74 402.29"/></svg>