<svg id="ICONES_AZUL_3" data-name="ICONES AZUL 3" xmlns="http://www.w3.org/2000/svg" viewBox="0 0 508.9 512"><defs><style>.cls-1{fill:#8dcbe4;fill-rule:evenodd;}</style></defs><path class="cls-1" d="M502.06,196.33C474.22,80.69,374.5,1.68,254.37,0a302.75,302.75,0,0,0-48.61,5C37,38.79-49.82,225.3,31.64,375.42c3.07,4.1,3.07,7.66,2.51,12.22-11.85,39-22.89,78.77-33,118.25-1.91,6.93-1.91,6.93,4.49,5,41.19-11.27,82-21.51,123-31.84a12,12,0,0,1,9.16.24c52.67,27.05,108.46,34.48,166.92,23.71C444,476,535.28,334,502.06,196.33Zm-212,266c-12.16,2.16-23.71,3.07-29.22,2.4-45,0-81.05-9.82-114.7-29.21-4.67-3.08-8.37-4.1-13-1.92-22.93,5.51-45.38,11.49-67.94,17.25-4.9,1.43-5.38.7-4.25-4.1,6-21.08,11.85-42.62,18.37-64.18,1.5-5.73,1.14-10.24-2.63-15.36-46-74.46-44.23-167.11,7.49-236.56C137.77,59.4,211.57,29.46,299.14,48.13c86.38,18.43,141.51,74.23,161.14,160.19,28.13,117.78-51.42,234.4-170.17,254Z"/><path class="cls-1" d="M320.87,375.42c-8.92.73-17.9-.95-26.57-3.82-57.83-16.76-101.94-52.67-137.37-101-13.17-17.48-25.75-37.07-29.46-59.6-5.38-26.58,2.76-49.8,23.17-68,6.29-6.23,25.86-9.1,33.64-5a21.5,21.5,0,0,1,5.5,6.71c7.36,18,15,35,22.27,52A12.54,12.54,0,0,1,211,207.34c-3.77,7.66-9.7,14.34-15.36,20.84-5.12,4.3-5.12,9.1-1.51,14.34,20.83,34.23,49,59.61,86.86,74.21,5.33,2.16,9.39,1.44,12.69-2.86,6.64-7.91,13.11-16.05,19-23.95,3.76-5,8.85-5.74,14.12-3.35,12.69,5.74,24.66,11.26,37,17,2.94,1.44,5.38,2.65,8.26,4.1,12.57,6.23,12.57,6.93,11.27,20.35-2,26.82-22.15,40-45.62,46.7A43.84,43.84,0,0,1,320.87,375.42Z"/></svg>