<svg id="ICONES_BRANCO" data-name="ICONES BRANCO" xmlns="http://www.w3.org/2000/svg" viewBox="0 0 412.92 512"><defs><style>.cls-1{fill:#fff;}</style></defs><path class="cls-1" d="M280.12,252A136.73,136.73,0,0,0,343.3,136.83C343.3,61.38,281.91,0,206.46,0S69.62,61.38,69.62,136.83A136.73,136.73,0,0,0,132.8,252C55.24,281.69,0,356.89,0,444.79A67.29,67.29,0,0,0,67.21,512H345.72a67.28,67.28,0,0,0,67.2-67.21C412.92,356.89,357.68,281.69,280.12,252ZM105,136.83a101.5,101.5,0,1,1,101.5,101.5A101.62,101.62,0,0,1,105,136.83ZM345.72,476.67H67.21a31.91,31.91,0,0,1-31.88-31.88c0-94.36,76.77-171.13,171.13-171.13s171.13,76.77,171.13,171.13A31.91,31.91,0,0,1,345.72,476.67Z"/></svg>