<svg id="ICONES_AZUL_2" data-name="ICONES AZUL 2" xmlns="http://www.w3.org/2000/svg" viewBox="0 0 395.36 512"><defs><style>.cls-1{fill:#67b7de;}</style></defs><path class="cls-1" d="M197.68,129.29a58.91,58.91,0,1,0,58.91,58.91A59,59,0,0,0,197.68,129.29Z"/><path class="cls-1" d="M197.68,0C88.5,0,0,88.5,0,197.68c0,93.09,143.72,261.5,186.07,309.1a15.52,15.52,0,0,0,23.22,0c42.35-47.6,186.07-216,186.07-309.1C395.36,88.5,306.86,0,197.68,0Zm0,285.93a97.74,97.74,0,1,1,97.74-97.73A97.85,97.85,0,0,1,197.68,285.93Z"/></svg>