<svg id="ICONES_AZUL_2" data-name="ICONES AZUL 2" xmlns="http://www.w3.org/2000/svg" viewBox="0 0 512 512"><defs><style>.cls-1{fill:#67b7de;}</style></defs><path class="cls-1" d="M498.84,377.63,435.19,314a45.07,45.07,0,0,0-63.65,0L342.6,342.92a34.14,34.14,0,0,1-48.21,0L169,217.41a34.06,34.06,0,0,1,0-48.21l28.93-28.94a45,45,0,0,0,0-63.66L134.26,13.17a45.05,45.05,0,0,0-63.61-.05l-23.19,23c-63.28,63.28-63.28,166.24,0,229.52l198.7,198.8a162.23,162.23,0,0,0,229.53,0l23.15-23.15A45.06,45.06,0,0,0,498.84,377.63ZM414,335.2l63.65,63.65a15,15,0,0,1,0,21.22L467,430.67l-84.87-84.86,10.61-10.61A15,15,0,0,1,414,335.2ZM113.06,34.4l63.63,63.43a15,15,0,0,1,0,21.22l-10.6,10.6L81.27,44.85,91.83,34.38A15,15,0,0,1,113.06,34.4ZM267.38,443.21,68.68,244.42a131.91,131.91,0,0,1-8.28-178L145,151a64,64,0,0,0,2.79,87.66l125.4,125.5h0a64,64,0,0,0,87.66,2.79l84.58,84.57A131.66,131.66,0,0,1,267.38,443.21Z"/></svg>