<svg id="ICONES_ORIGINAL" data-name="ICONES ORIGINAL" xmlns="http://www.w3.org/2000/svg" viewBox="0 0 512 512"><defs><style>.cls-1{fill:#0078ab;}</style></defs><path class="cls-1" d="M256,0C114.84,0,0,114.84,0,256S114.84,512,256,512,512,397.16,512,256,397.16,0,256,0ZM475.9,238.33H379.6c-2.4-79.85-21-147.54-49.44-190.14C410.15,76.82,468.89,150.39,475.9,238.33ZM256,476.67c-40,0-84.24-82.51-88.23-203H344.23C340.24,394.16,296,476.67,256,476.67ZM167.77,238.33c4-120.49,48.27-203,88.23-203s84.24,82.51,88.23,203ZM181.84,48.19c-28.48,42.6-47,110.29-49.43,190.14H36.1C43.11,150.39,101.85,76.82,181.84,48.19ZM36.1,273.67h96.31c2.39,79.85,21,147.54,49.43,190.14C101.85,435.18,43.11,361.61,36.1,273.67ZM330.16,463.81c28.48-42.6,47-110.29,49.44-190.14h96.3C468.89,361.61,410.15,435.18,330.16,463.81Z"/></svg>