<svg id="ICONES_AZUL_1" data-name="ICONES AZUL 1" xmlns="http://www.w3.org/2000/svg" viewBox="0 0 358.29 512"><defs><style>.cls-1{fill:#4377a8;}</style></defs><path class="cls-1" d="M282.5,0H75.79A75.87,75.87,0,0,0,0,75.78V436.21A75.88,75.88,0,0,0,75.79,512H282.5a75.88,75.88,0,0,0,75.79-75.79V75.78A75.87,75.87,0,0,0,282.5,0ZM75.79,35H282.5a40.86,40.86,0,0,1,40.82,40.81V364.55H35V75.78A40.86,40.86,0,0,1,75.79,35ZM282.5,477H75.79A40.86,40.86,0,0,1,35,436.21v-36.7H323.32v36.7A40.86,40.86,0,0,1,282.5,477Z"/><path class="cls-1" d="M174.36,85.28a14,14,0,1,0-14-14A14,14,0,0,0,174.36,85.28Z"/><path class="cls-1" d="M174.36,421.27a14,14,0,1,0,14,14A14,14,0,0,0,174.36,421.27Z"/></svg>