<svg id="ICONES_AZUL_1" data-name="ICONES AZUL 1" xmlns="http://www.w3.org/2000/svg" viewBox="0 0 325.84 512"><defs><style>.cls-1{fill:#4377a8;}</style></defs><polygon class="cls-1" points="23.28 107.5 23.28 268.75 0 282.19 0 94.06 23.28 107.5"/><polygon class="cls-1" points="69.82 134.37 69.82 241.88 46.54 255.31 46.54 120.94 69.82 134.37"/><polygon class="cls-1" points="116.37 161.25 116.37 215 93.1 228.44 93.1 147.81 116.37 161.25"/><polygon class="cls-1" points="162.92 188.12 139.64 201.56 139.64 174.69 162.92 188.12"/><polygon class="cls-1" points="325.85 94.06 325.85 282.19 302.57 268.75 302.57 107.5 325.85 94.06"/><polygon class="cls-1" points="279.3 120.94 279.3 255.31 256.02 241.88 256.02 134.37 279.3 120.94"/><polygon class="cls-1" points="232.75 147.81 232.75 228.44 209.47 215 209.47 161.25 232.75 147.81"/><polygon class="cls-1" points="186.21 174.69 186.21 201.56 162.93 188.12 186.21 174.69"/><polygon class="cls-1" points="186.2 13.44 23.28 107.5 0 94.06 162.92 0 186.2 13.44"/><polygon class="cls-1" points="232.74 40.31 69.82 134.37 46.55 120.93 209.47 26.87 232.74 40.31"/><polygon class="cls-1" points="279.3 67.19 116.38 161.25 93.1 147.81 256.02 53.75 279.3 67.19"/><polygon class="cls-1" points="162.92 161.25 186.2 174.68 162.92 188.12 139.65 174.69 162.92 161.25"/><polygon class="cls-1" points="209.47 134.38 232.74 147.81 209.47 161.25 186.19 147.82 209.47 134.38"/><polygon class="cls-1" points="256.02 107.5 279.29 120.94 256.02 134.37 232.74 120.94 256.02 107.5"/><polygon class="cls-1" points="325.85 94.06 325.83 94.06 302.55 107.5 279.28 94.06 302.56 80.62 302.57 80.62 325.85 94.06"/><polygon class="cls-1" points="162.92 349.37 139.64 362.81 116.37 349.38 162.92 322.5 162.92 349.37"/><polygon class="cls-1" points="162.92 295.63 93.1 335.94 69.82 322.5 162.92 268.75 162.92 295.63"/><polygon class="cls-1" points="162.92 241.87 46.55 309.06 23.28 295.63 162.92 215 162.92 241.87"/><polygon class="cls-1" points="209.47 349.38 186.2 362.81 162.93 349.37 162.92 322.5 209.47 349.38"/><polygon class="cls-1" points="256.02 322.5 232.75 335.94 162.92 295.63 162.93 268.75 256.02 322.5"/><polygon class="cls-1" points="302.57 295.63 279.3 309.06 162.93 241.87 162.92 215 302.57 295.63"/><path class="cls-1" d="M46.7,404.25H28.62V512H18.23V404.25H0v-9.19H46.7Z"/><path class="cls-1" d="M96.36,512h-38V395.06h38v9.19H68.78v43.64H93.89v9.34H68.78v45.58H96.36Z"/><path class="cls-1" d="M154.9,503.71a8,8,0,0,1-2.39,6,8.33,8.33,0,0,1-6,2.32H116.34a7.95,7.95,0,0,1-8.29-8.29V403.35a7.95,7.95,0,0,1,8.29-8.29h30.12a8.33,8.33,0,0,1,6,2.32,8,8,0,0,1,2.39,6v27.2H144.44v-26.3h-26v98.56h26V474H154.9Z"/><path class="cls-1" d="M204,512H166.59V395.06H177V502.81h27Z"/><path class="cls-1" d="M267.3,512H257l-4.09-25.94H229.74L225.64,512h-10v-.3l20.79-116.64h10.21Zm-15.73-35.11-10.21-63.2-10.28,63.2Z"/><path class="cls-1" d="M325.84,503.71a7.93,7.93,0,0,1-8.29,8.29H279V395.06h38.26a7.95,7.95,0,0,1,8.3,8.29V438.1a9.4,9.4,0,0,1-4.19,7.77l-8.22,4.93,8.82,5.68a8.15,8.15,0,0,1,3.88,7.47Zm-10.76-64.27V404.25h-25.7v42.22H304.7Zm.3,63.37V462.38l-10.53-6.87H289.38v47.3Z"/></svg>