<svg id="ICONES_AZUL_1" data-name="ICONES AZUL 1" xmlns="http://www.w3.org/2000/svg" viewBox="0 0 1426.64 512"><defs><style>.cls-1{fill:#4377a8;}</style></defs><path class="cls-1" d="M204.47,40.24H125.3V512H79.83V40.24H0V0H204.47Z"/><path class="cls-1" d="M421.87,512H255.67V0h166.2V40.24H301.15V231.3H411.07v40.89H301.15V471.76H421.87Z"/><path class="cls-1" d="M678.19,475.69q0,16-10.46,26.17T641.23,512H509.38q-16,0-26.17-10.14t-10.14-26.17V36.31q0-16,10.14-26.17T509.38,0H641.23q16,0,26.5,10.14t10.46,26.17V155.4h-45.8V40.24H518.54V471.76H632.39v-126h45.8Z"/><path class="cls-1" d="M893,512H729.39V0h45.48V471.76H893Z"/><path class="cls-1" d="M1170.31,512h-45l-18-113.55H1005.85L987.9,512H944.17v-1.3L1035.21,0h44.71ZM1101.46,358.3,1056.75,81.58l-45,276.72Z"/><path class="cls-1" d="M1426.64,475.69q0,16-10.15,26.17T1390.32,512H1221.51V0H1389q16,0,26.18,10.14t10.14,26.17V188.44q0,20.3-18.32,34l-36,21.59,38.6,24.86q17,10.47,17,32.72Zm-47.11-281.36V40.24H1267V225.08h67.07Zm1.3,277.43v-177l-46.12-30.1H1267V471.76Z"/></svg>